<svg width="596" height="596" viewBox="0 0 596 596" fill="none" xmlns="http://www.w3.org/2000/svg">
<rect width="596" height="596" rx="112" fill="white"/>
<g clip-path="url(#clip0_31_3)">
<path d="M363.189 299.863H395.97V341.385H363.189V299.863Z" fill="#2B3437"/>
<path d="M394.877 160H504.145C511.386 160 517.257 165.871 517.257 173.112V423.336C517.257 430.577 511.386 436.448 504.145 436.448H394.877V160Z" fill="#2B3437"/>
<path d="M78 173.112C78 165.871 83.8705 160 91.1121 160H366.467V436.448H91.1121C83.8705 436.448 78 430.577 78 423.336V173.112Z" fill="#2B3437"/>
<path d="M424.379 406.732V191.688H488.479V406.732H424.379Z" fill="white"/>
<path d="M478.214 321.373H311.762V276.917H478.214V321.373Z" fill="white"/>
<path d="M110.78 406.732V191.688H163.072L238.544 332.081H211.051L284.367 191.688H336.658L337.197 406.732H279.245L278.707 291.222H287.871L237.735 387.378H209.703L157.411 291.222H168.732V406.732H110.78Z" fill="white"/>
</g>
<defs>
<clipPath id="clip0_31_3">
<rect width="439.257" height="276.448" fill="white" transform="translate(78 160)"/>
</clipPath>
</defs>
</svg>
